<svg width="1066" height="719" viewBox="0 0 1066 719" fill="none" xmlns="http://www.w3.org/2000/svg">
<path d="M747.996 89.4164C745.433 89.0014 740.713 89.0453 737.593 89.5433C730.496 90.7475 717.258 96.0354 709.707 100.721C706.545 102.655 703.814 104.225 703.586 104.086C703.434 103.993 703.324 102.465 703.505 100.8C703.782 96.5843 702.161 88.8102 700.488 85.9105C699.643 84.5599 697.413 82.5732 695.437 81.3676C692.168 79.3738 691.374 79.3072 686.752 80.559C680.537 82.1971 675.451 86.0894 670.679 92.8873C664.333 101.753 665.359 101.439 657.757 96.802C648.255 91.006 640.735 89.6553 634.876 92.7629C629.279 95.6125 627.757 100.844 630.293 108.655C631.13 111.044 633.027 114.603 634.662 116.539C637.809 120.442 653.005 132.635 661.122 137.795C677.888 148.439 739.718 184.379 742.995 185.334C747.977 186.912 758.38 184.905 764.12 181.308C768.97 178.315 773.958 171.336 774.281 167.044C774.94 156.901 768.152 149.734 751.734 143.477C747.667 141.936 744.243 140.369 744.108 140.078C744.095 139.757 746.344 137.266 749.176 134.505C759.55 124.338 764.789 112.5 762.906 103.104C761.332 95.2541 756.737 90.9894 747.996 89.4164ZM756.378 101.837C760.156 109.152 754.917 120.99 742.901 132.139C737.115 137.692 736.575 138.406 736.588 140.607C736.775 144.062 737.308 144.386 750.939 149.569C758.995 152.604 760.913 153.565 764.021 156.505C768.283 160.462 769.446 164.199 767.915 168.589C766.182 173.483 762.261 176.833 755.861 178.775C745.526 181.867 748.571 183.202 706.792 157.822C686.449 145.518 664.493 132.439 657.892 128.726C644.463 121.161 640.261 117.449 636.618 110.425C635.414 108.124 634.556 104.573 634.724 102.588C634.857 99.1198 634.997 98.8916 637.496 97.7016C642.033 95.5629 647.126 96.7899 656.248 102.354C662.101 105.924 664.795 107.15 665.821 106.836C666.648 106.506 669.776 103.089 672.755 99.0601C681.612 87.4461 688.319 83.2899 693.412 86.3966C696.757 88.4368 698.504 97.5412 697.085 105.34C696.204 110.545 696.272 111.631 697.869 112.604C699.465 113.578 701.074 112.993 708.87 108.249C720.456 101.223 724.074 99.5665 733.779 96.8216C745.566 93.5714 752.947 95.1504 756.378 101.837Z" fill="url(#paint0_linear_35_1706)"/>
<path d="M685.329 162.06C681.073 163.223 673.847 167.376 672.686 169.278C671.433 171.332 673.621 172.875 676.758 172.179C683.55 170.789 691.941 164.215 690.019 161.894C689.626 161.341 687.503 161.403 685.329 162.06Z" fill="url(#paint1_linear_35_1706)"/>
<path d="M713.739 182C712.59 182.343 709.783 183.867 707.297 185.378C699.146 190.533 698.929 194.994 707.051 191.596C715.126 188.274 721.042 179.773 713.739 182Z" fill="url(#paint2_linear_35_1706)"/>
<path d="M644.857 143.429C641.889 144.019 635.874 147.554 634.853 149.228C633.878 150.826 634.846 152.146 637.028 152.33C641.365 152.573 651.106 145.153 648.522 143.576C647.913 143.205 646.279 143.148 644.857 143.429Z" fill="url(#paint3_linear_35_1706)"/>
<path d="M674.878 190.137C672.091 190.943 668.199 192.536 666.22 193.73C663.303 195.604 662.856 196.167 663.304 197.484C664.035 199.705 666.843 200.06 671.313 198.716C675.586 197.355 680.473 193.446 680.949 191.126C681.379 188.883 680.433 188.724 674.878 190.137Z" fill="url(#paint4_linear_35_1706)"/>
<path d="M639.602 169.142C638.184 168.903 632.169 172.437 631.101 174.187C630.73 174.796 630.861 175.606 631.393 175.931C633.218 177.044 636.004 176.238 639.14 173.662C642.706 170.722 642.837 169.653 639.602 169.142Z" fill="url(#paint5_linear_35_1706)"/>
<path d="M368.139 116.964C338.447 122.362 332.34 144.018 354.69 164.763C369.763 178.68 395.362 191.231 414.594 194.093C421.871 195.133 432.656 194.548 438.114 192.792C446.17 190.256 451.173 183.622 450.003 177.119C448.184 167.299 435.58 157.609 418.882 153.317C408.422 150.651 391.594 150.391 390.749 152.927C390.424 153.903 391.724 154.098 402.639 154.943C413.619 155.789 421.806 157.87 429.927 161.837C439.998 166.779 445.845 173.282 445.845 179.525C445.845 186.159 437.009 190.776 424.145 190.776C402.899 190.776 373.662 177.704 356.509 160.536C348.388 152.407 345.529 147.334 345.529 140.701C345.464 137.189 345.789 135.954 347.283 133.352C355.859 118.72 387.436 116.314 424.405 127.499C444.611 133.547 459.294 139.725 471.444 147.139C480.02 152.407 486.777 155.138 482.424 151.561C478.916 148.635 462.998 138.88 456.566 135.693C440.128 127.499 415.049 119.63 397.051 116.964C388.8 115.794 374.571 115.794 368.139 116.964Z" fill="url(#paint6_linear_35_1706)"/>
<path d="M388.345 138.815C383.083 139.596 378.015 142.197 376.391 144.863C374.377 148.115 374.571 152.732 376.91 156.374C381.069 163.007 393.088 170.031 405.693 173.218C411.8 174.778 422.066 175.689 422.716 174.648C423.365 173.608 422.456 173.283 416.868 172.502C401.6 170.421 381.653 159.626 379.509 152.342C378.405 148.765 379.509 146.749 383.732 144.668C386.461 143.303 388.086 143.043 395.427 142.782C404.588 142.457 410.111 143.238 421.806 146.294C436.36 150.131 453.577 157.675 464.947 165.219C472.679 170.291 481.775 179.201 484.439 184.208C487.947 190.776 486.648 197.15 480.8 202.157C469.04 212.237 444.936 214.903 415.893 209.246C401.21 206.384 396.467 204.693 369.958 192.727C366.58 191.232 363.721 190.191 363.526 190.386C362.552 191.297 364.436 192.987 370.543 196.564C383.213 204.108 400.04 210.221 416.218 213.148C441.103 217.765 461.439 216.594 475.408 209.701C481.645 206.579 485.543 203.393 487.947 199.361C489.442 196.759 489.701 195.589 489.701 191.427C489.701 187.33 489.377 185.899 487.752 182.647C485.088 177.315 475.278 167.56 467.351 162.292C443.312 146.424 407.512 135.759 388.345 138.815Z" fill="url(#paint7_linear_35_1706)"/>
<path d="M331.82 170.031C330.91 171.396 332.275 176.599 334.744 181.541C338.642 189.28 347.088 198.71 347.088 195.263C347.088 194.808 345.009 191.296 342.475 187.394C339.941 183.557 336.758 177.9 335.328 174.843C333.899 171.787 332.6 169.315 332.47 169.315C332.34 169.315 332.015 169.64 331.82 170.031Z" fill="url(#paint8_linear_35_1706)"/>
<path d="M504.645 184.273C504.45 184.598 504.775 186.549 505.359 188.5C506.334 191.882 506.334 192.402 505.294 195.524C504.71 197.41 503.345 200.401 502.306 202.222C500.227 205.929 499.902 207.685 501.396 207.685C502.566 207.685 505.879 203.263 507.958 198.905C510.167 194.288 510.037 190.516 507.568 186.679C505.554 183.428 505.294 183.233 504.645 184.273Z" fill="url(#paint9_linear_35_1706)"/>
<path d="M767.669 251.201C766.587 251.89 762.345 255.161 758.298 258.425L750.898 264.344L745.819 262.243C738.96 259.423 728.782 256.524 725.925 256.623C724.432 256.675 723.214 257.173 722.464 258.045C720.716 260.123 722.224 262.348 731.848 271.774C736.628 276.488 740.413 280.651 740.299 281.111C740.183 281.505 737.535 283.875 734.437 286.39C731.339 288.906 727.811 292.152 726.56 293.562C724.309 296.113 724.309 296.113 724.177 303.536C723.95 315.712 719.54 330.962 713.147 341.531C704.605 355.754 689.353 371.446 672.354 383.62C664.68 389.158 662.738 391.243 663.517 393.103C664.508 395.411 671.455 393.282 689.634 385.101C702.755 379.179 722.553 367.102 735.657 356.951C748.951 346.662 761.649 332.295 766.365 322.11C767.15 320.391 768.513 318.456 769.339 317.907C770.797 316.815 771.624 314.444 774.379 302.049L775.559 296.737L779.303 295.956C786.268 294.348 793.398 291.887 794.719 290.605C795.473 289.863 796.015 288.607 795.985 287.763C795.917 285.813 794.193 284.832 782.92 280.343C778.305 278.487 774.211 276.677 773.877 276.428C773.474 276.052 773.408 272.28 773.74 266.868C774.242 257.024 773.549 252.038 771.551 250.676C770.019 249.623 770.019 249.623 767.669 251.201ZM770.014 260.685C770.111 263.48 770.021 268.364 769.805 271.494L769.484 277.232L771.431 278.986C772.569 279.923 776.933 282.048 781.085 283.661C788.862 286.709 791.31 287.925 790.746 288.53C790.556 288.667 786.828 289.903 782.384 291.099C774.082 293.535 771.918 294.847 771.384 298.184C770.463 303.487 768.623 312.271 768.14 313.329C767.594 314.454 767.462 314.393 766.234 312.744C765.484 311.729 763.14 307.906 760.996 304.207C758.852 300.507 756.251 296.758 755.241 295.752C753.026 293.747 750.487 293.64 740.994 295.467C734.212 296.744 729.349 297.109 729.322 296.329C729.313 296.069 732.715 292.957 736.885 289.494C743.33 284.129 744.458 282.918 744.406 281.423C744.327 279.148 742.152 276.426 734.267 268.436C728.742 262.837 727.382 261.128 728.421 261.091C728.616 261.085 733.679 262.73 739.597 264.672L750.387 268.331L754.709 265.513C757.062 263.999 761.183 260.993 763.713 258.952C766.305 256.845 768.783 255.197 769.112 255.316C769.571 255.43 769.908 257.631 770.014 260.685ZM748.489 305.358C740.926 330.869 724.223 353.444 700.989 369.545C695.214 373.585 685.391 379.002 685.361 378.157C685.357 378.027 688.631 374.985 692.6 371.333C701.802 363.009 710.683 352.939 715.49 345.354C722.947 333.577 727.467 319.624 727.575 307.777L727.723 300.81L732.655 300.573C735.382 300.478 740.239 299.919 743.405 299.353C746.635 298.785 749.488 298.556 749.757 298.806C750.088 298.99 749.478 302.005 748.489 305.358ZM756.881 305.521C757.713 306.989 759.774 310.171 761.418 312.586C763.127 315 764.503 317.164 764.51 317.359C764.537 318.139 759.291 326.195 754.819 332.207C743.329 347.639 723.655 363.29 699.274 376.307C686.89 382.854 682.403 384.702 690.939 379.655C705.784 370.939 715.156 363.781 725.141 353.673C738.58 340.06 748.484 322.016 752.043 304.714C752.984 299.996 752.981 299.931 754.202 301.385C754.814 302.144 756.048 303.989 756.881 305.521Z" fill="url(#paint10_linear_35_1706)"/>
<path d="M707.664 279.253C707.543 279.517 707.292 285.383 707.14 292.22C706.769 307.72 705.441 318.113 702.153 330.136C699.443 340.056 699.191 342.147 700.554 342.099C702.437 342.034 705.183 336.863 707.936 328.177C710.166 321.267 711.073 315.574 711.383 305.803C711.887 292.25 709.627 275.866 707.664 279.253Z" fill="url(#paint11_linear_35_1706)"/>
<path d="M788.643 304.677C788.152 305.54 786.768 308.711 785.508 311.748C780.893 322.971 773.053 334.957 762.053 347.638C756.05 354.484 755.014 356.473 757.351 356.391C758.975 356.335 766.99 349.419 771.552 344.119C775.677 339.356 782.643 328.441 785.482 322.226C789.23 314.092 791.904 303.132 790.086 303.195C789.762 303.206 789.135 303.879 788.643 304.677Z" fill="url(#paint12_linear_35_1706)"/>
<path d="M685.327 356.62C682.576 359.774 682.12 361.612 684.003 361.546C685.237 361.503 689.787 355.879 689.737 354.449C689.678 352.759 687.887 353.602 685.327 356.62Z" fill="url(#paint13_linear_35_1706)"/>
<path d="M733.211 366.992C730.019 368.665 727.988 370.102 728.011 370.752C728.058 372.117 729.353 371.941 734.285 369.818C738.959 367.768 741.236 365.932 740.548 364.849C739.795 363.769 738.763 364.001 733.211 366.992Z" fill="url(#paint14_linear_35_1706)"/>
<path d="M237.402 342.126C234.673 347.127 235.098 353.067 238.715 359.997C246.349 374.53 269.341 385.723 291.395 385.581C297.597 385.531 297.378 385.449 297.068 387.913C296.668 390.922 298.796 392.437 302.746 391.922C305.328 391.509 305.858 391.69 308.1 393.922C311.465 397.271 313.829 402.458 314.897 408.737C315.667 413.708 315.626 415.098 314.46 430.186C313.715 439.286 314.094 442.377 316.381 446.899C319.953 454.102 325.9 457.037 335.856 456.534C337.978 456.371 344.866 455.269 351.186 453.934C366.174 450.859 368.077 450.614 372.951 450.717C378.02 450.76 382.552 452.95 386.795 457.189C391.281 461.655 393.901 466.418 396.903 475.391C398.938 481.455 399.66 483.018 400.567 483.168C402.071 483.369 402.066 481.691 400.559 475.247C398.624 466.87 396.815 463.125 391.939 456.779C388.216 451.927 386.966 450.743 384.022 449.093C376.606 444.891 371.589 444.81 353.52 448.496C337.905 451.701 333.109 452.262 328.331 451.289C323.515 450.263 320.925 447.88 319.081 442.639C317.855 439.036 317.84 434.003 319.095 420.934C320.151 409.928 317.873 400.516 312.642 394.344C310.99 392.488 309.133 390.459 308.558 389.991C307.649 389.283 307.633 388.814 308.498 387.792C310.23 385.748 310.427 383.125 308.948 381.065C307.696 379.322 307.658 379.269 311.353 374.055C324.717 355.014 330.075 331.953 323.981 319.676C318.647 309.015 308.102 307.139 297.464 314.937C291.696 319.158 287.731 324.887 283.988 334.379C282.262 338.66 280.55 342.291 280.12 342.36C279.674 342.519 276.513 341.346 272.995 339.789C257.261 332.912 241.911 333.925 237.402 342.126ZM249.726 340.243C255.609 339.302 260.946 340.274 269.886 343.702C274.53 345.492 279.075 347.032 280.05 347.053C283.088 347.274 285.001 345.26 286.822 340.109C288.982 334.316 292.678 327.099 295.08 324.094C297.866 320.733 303.483 316.86 306.828 316.06C315.661 313.881 321.157 320.422 321.201 332.96C321.248 344.054 315.223 361.509 307.159 373.783C305.429 376.386 303.426 378.945 302.74 379.437C300.998 380.688 288.631 380.841 281.36 379.737C270.551 378.05 260.196 373.876 251.853 367.937C247.636 364.96 242.251 357.459 241.105 353.078C239.309 346.121 242.462 341.376 249.726 340.243Z" fill="url(#paint15_linear_35_1706)"/>
<path d="M416.684 558.328C414.836 557.912 413.155 558.96 413.961 560.076C414.607 561.081 418.941 561.566 420.021 560.812C420.755 560.214 418.873 558.823 416.684 558.328Z" fill="url(#paint16_linear_35_1706)"/>
<path d="M342.912 512.936C342.417 513.305 341.445 514.926 340.777 516.68C338.895 521.313 338.565 521.559 334.949 521.179C329.373 520.543 328.977 522.249 333.648 526.455L336.479 528.983L334.953 533.786C334.068 536.419 333.545 538.988 333.823 539.498C334.406 540.935 337.886 540.031 341.545 537.508L344.859 535.141L346.879 536.787C348.351 537.971 349.192 538.24 350.065 537.897C351.156 537.469 351.208 536.712 350.681 533.491C349.993 529.365 350.279 528.614 353.507 526.028C356.405 523.688 356.089 522.437 352.452 522.201C350.977 522.045 349.432 521.761 349.112 521.538C348.739 521.278 347.788 519.347 347.002 517.293C345.377 513.148 344.337 512.027 342.912 512.936ZM344.888 520.1L345.444 521.915L343.826 521.738C342.388 521.528 342.265 521.363 342.64 519.802C342.878 518.779 343.149 517.937 343.26 517.776C343.632 517.243 344.384 518.322 344.888 520.1ZM345.69 529.062C344.426 530.876 344.335 530.892 342.31 529.48C340.924 528.514 340.31 527.69 340.506 526.955C340.961 525.052 341.583 524.614 343.708 524.747C346.589 524.932 347.363 526.661 345.69 529.062ZM337.298 525.195C337.112 525.461 336.713 525.579 336.393 525.357C336.127 525.171 336.046 524.718 336.232 524.451C336.455 524.131 336.87 524.104 337.137 524.289C337.457 524.512 337.521 524.874 337.298 525.195ZM340.311 534.508C337.487 536.741 336.954 536.369 338.355 533.224C339.113 531.453 339.331 531.368 340.557 532.222C341.836 533.114 341.815 533.258 340.311 534.508Z" fill="url(#paint17_linear_35_1706)"/>
<path d="M387.992 545.861C386.682 545.582 385.543 545.74 385.443 546.225C384.977 547.802 391.077 550.072 392.688 548.896C393.587 548.175 390.9 546.461 387.992 545.861Z" fill="url(#paint18_linear_35_1706)"/>
<path d="M374.475 539.69C372.147 538.94 371.263 538.958 370.886 539.726C370.393 540.888 371.016 541.243 376.152 543.079C378.176 543.697 379.704 543.89 380.039 543.41C380.708 542.45 378.539 541.017 374.475 539.69Z" fill="url(#paint19_linear_35_1706)"/>
<path d="M357.835 532.77C355.039 532.01 353.32 532.318 353.561 533.676C353.739 534.671 363.018 537.492 363.917 536.771C364.816 536.05 361.17 533.668 357.835 532.77Z" fill="url(#paint20_linear_35_1706)"/>
<path d="M350.457 539.835C349.51 540.285 351.3 544.307 353.294 546.331C357.07 550.231 356.455 545.205 352.594 541.087C351.783 540.204 350.893 539.663 350.457 539.835Z" fill="url(#paint21_linear_35_1706)"/>
<path d="M238.192 462.859C237.895 463.286 237.296 465.168 236.841 467.07C236.386 468.973 235.862 470.748 235.676 471.014C235.49 471.281 233.829 471.392 231.939 471.263C227.061 470.876 226.69 472.203 230.838 475.57L234.064 478.214L232.847 482.915C231.979 486.432 231.912 487.891 232.691 488.592C233.821 489.697 235.193 488.751 237.796 485.017L239.544 482.509L243.493 485.024C248.653 488.303 249.604 487.618 247.211 482.304C246.265 480.138 245.532 478.122 245.558 477.743C245.584 477.365 246.919 476.472 248.558 475.712C253.038 473.602 252.162 472.358 246.076 472.001L242.295 471.744L241.273 468.098C240.721 466.049 240.436 464.185 240.584 463.972C240.733 463.758 240.402 463.211 239.816 462.802C239.23 462.393 238.49 462.433 238.192 462.859ZM240.159 477.309C238.772 478.959 238.25 478.912 237.943 477.192C237.674 475.419 239.307 474.1 240.4 475.258C240.928 475.864 240.86 476.53 240.159 477.309ZM243.306 481.088C243.28 481.467 242.987 481.659 242.721 481.473C242.401 481.25 242.321 480.798 242.506 480.531C242.73 480.211 242.985 480.072 243.092 480.146C243.251 480.258 243.369 480.657 243.306 481.088Z" fill="url(#paint22_linear_35_1706)"/>
<path d="M319.255 519.039C316.736 518.79 317.217 519.918 320.682 522.333C322.601 523.67 324.295 524.534 324.444 524.321C325.522 522.773 322.045 519.24 319.255 519.039Z" fill="url(#paint23_linear_35_1706)"/>
<path d="M306.965 511.901C305.644 511.297 304.6 511.204 304.085 511.717C303.367 512.405 303.629 512.826 305.814 514.349C307.2 515.315 309.017 516.343 309.822 516.666C311.558 517.242 312.685 515.967 311.246 514.964C310.659 514.555 309.988 513.928 309.636 513.524C309.337 513.158 308.127 512.394 306.965 511.901Z" fill="url(#paint24_linear_35_1706)"/>
<path d="M381.359 566.287L378.15 567.142L375.43 564.454C371.953 560.921 368.819 559.054 367.862 559.972C367.474 560.415 367.388 562.812 367.765 565.453L368.331 570.208L365.447 571.051C363.85 571.524 362.339 572.214 362.116 572.535C361.596 573.282 363.674 574.73 367.233 576.101L370.131 577.17L370.986 581.966C372.199 588.52 373.291 588.884 376.766 584.013L379.422 580.316L381.915 580.943C385.34 581.824 386.152 580.091 383.878 576.763C381.834 573.673 381.8 572.699 383.994 569.551C386.374 566.136 385.494 565.127 381.359 566.287ZM374.264 567.604C374.659 568.514 374.548 568.674 373.1 568.934C371.615 569.246 371.545 569.119 371.126 566.765L370.638 564.285L372.237 565.399C373.143 566.031 374.023 567.041 374.264 567.604ZM378.297 572.952C378.41 573.586 378.119 574.572 377.636 575.266C376.557 576.813 373.665 576.303 372.624 574.389C371.812 572.713 372.386 572.003 374.903 571.459C377.15 570.963 378.007 571.323 378.297 572.952ZM375.169 581.077C374.388 582.198 374.335 582.16 373.992 580.494C373.713 579.19 373.866 578.742 374.532 578.81C375.847 578.855 376.099 579.743 375.169 581.077Z" fill="url(#paint25_linear_35_1706)"/>
<path d="M288.546 500.491C287.902 500.279 287.194 500.499 286.966 501.054C286.605 501.912 287.064 502.391 289.27 503.77C292.404 505.637 294.06 505.761 293.392 504.106C292.964 503.015 290.549 501.253 288.546 500.491Z" fill="url(#paint26_linear_35_1706)"/>
<path d="M271.811 490.413C271.487 490.424 270.992 490.793 270.695 491.22C270.36 491.7 271.117 492.545 273.623 494.291C277.034 496.669 279.047 496.962 278.24 495.052C277.759 493.924 272.663 490.214 271.811 490.413Z" fill="url(#paint27_linear_35_1706)"/>
<path d="M327.98 531.859C325.548 532.621 324.533 533.737 325.599 534.48C326.505 535.112 330.295 534.106 331.038 533.039C331.894 531.812 330.194 531.183 327.98 531.859Z" fill="url(#paint28_linear_35_1706)"/>
<path d="M358.955 553.209C358.174 554.329 361.554 560.728 362.731 560.518C364.088 560.275 363.882 558.07 362.313 555.549C360.759 553.119 359.587 552.302 358.955 553.209Z" fill="url(#paint29_linear_35_1706)"/>
<path d="M257.989 483.316C256.667 482.712 255.677 482.656 255.342 483.136C254.152 484.843 260.872 488.496 262.382 487.012C263.265 486.2 262.113 485.239 257.989 483.316Z" fill="url(#paint30_linear_35_1706)"/>
<path d="M318.588 535.222C315.693 535.74 312.283 537.565 312.444 538.47C312.766 540.28 320.031 538.606 321.63 536.312C322.597 534.924 321.755 534.655 318.588 535.222Z" fill="url(#paint31_linear_35_1706)"/>
<path d="M247.639 493.62C247.081 494.42 248.035 497.939 248.999 498.373C250.571 499.072 251.229 497.787 250.134 495.835C248.991 493.612 248.16 492.873 247.639 493.62Z" fill="url(#paint32_linear_35_1706)"/>
<path d="M355.588 569.174C352.25 569.305 353.569 571.73 356.977 571.727C357.914 571.746 358.856 571.531 359.079 571.211C359.562 570.517 357.212 569.117 355.588 569.174Z" fill="url(#paint33_linear_35_1706)"/>
<path d="M345.853 567.462C343.211 567.048 341.094 568.267 342.587 569.308C344.026 570.311 349.101 570.756 349.696 569.902C350.439 568.835 348.963 567.886 345.853 567.462Z" fill="url(#paint34_linear_35_1706)"/>
<path d="M251.984 503.862C251.112 504.205 251.818 510.009 252.885 510.752C254.11 511.606 254.969 509.351 254.221 507.244C253.065 503.902 252.804 503.482 251.984 503.862Z" fill="url(#paint35_linear_35_1706)"/>
<path d="M298.328 540.998C294.794 541.864 293.624 542.634 294.158 543.799C294.415 544.453 302.851 542.803 303.446 541.949C304.301 540.722 301.5 540.196 298.328 540.998Z" fill="url(#paint36_linear_35_1706)"/>
<path d="M254.148 518.37C253.404 519.437 254.433 523.642 255.622 524.55C257.061 525.553 257.618 523.959 256.884 521.149C256.15 518.338 255.003 517.143 254.148 518.37Z" fill="url(#paint37_linear_35_1706)"/>
<path d="M311.999 559.562C308.063 558.959 306.259 559.843 308.392 561.329C309.937 562.406 317.18 563.49 318.116 562.716C319.18 561.872 315.988 560.202 311.999 559.562Z" fill="url(#paint38_linear_35_1706)"/>
<path d="M285.161 544.663C281.765 544.991 277.956 546.933 278.198 548.291C278.44 549.649 279.18 549.609 283.905 547.829C286.757 546.805 287.964 545.982 287.851 545.348C287.739 544.715 286.913 544.536 285.161 544.663Z" fill="url(#paint39_linear_35_1706)"/>
<path d="M297.404 555.732C292.27 554.69 290.428 554.833 291.388 556.295C292.595 558.087 302.745 559.772 302.796 558.222C302.874 557.087 302.017 556.727 297.404 555.732Z" fill="url(#paint40_linear_35_1706)"/>
<path d="M266.753 539.6L264.283 540.416L261.958 537.844C260.726 536.43 259.099 534.901 258.353 534.38C256.381 533.006 255.25 535.31 255.965 539.057L256.566 542.172L252.819 542.889C250.466 543.31 248.865 544.017 248.615 544.716C248.143 545.734 248.549 546.175 252.764 548.876L257.353 551.836L257.176 554.25C256.461 563.343 259.782 565.737 262.576 558.092L263.763 554.798L265.372 555.444C270.109 557.397 270.791 557.555 271.311 556.808C271.609 556.381 270.844 554.184 269.61 551.976C267.042 547.253 266.966 546.566 268.825 543.899C271.614 539.897 270.872 538.349 266.753 539.6ZM260.334 541.31C260.148 541.577 259.856 541.769 259.749 541.695C259.589 541.584 259.509 541.131 259.535 540.753C259.598 540.321 259.853 540.182 260.12 540.368C260.439 540.591 260.557 540.99 260.334 541.31ZM263.302 545.915C263.415 546.549 262.9 547.855 262.194 548.868L260.855 550.789L260.339 547.893C259.904 545.449 260.058 545.002 261.128 544.717C262.634 544.26 263.044 544.467 263.302 545.915ZM256.745 547.369C256.591 547.817 255.925 547.75 255.072 547.155C253.793 546.264 253.761 546.083 254.831 545.798C256.209 545.411 257.078 546.096 256.745 547.369Z" fill="url(#paint41_linear_35_1706)"/>
<path d="M279.431 550.498C276.987 550.142 275.387 551.643 277.316 552.511C279.351 553.454 284.544 554.299 284.953 553.712C285.51 552.912 282.11 550.859 279.431 550.498Z" fill="url(#paint42_linear_35_1706)"/>
<path d="M792.753 614.341C795.05 622.88 799.52 630.168 807.021 637.286C813.766 643.687 817.784 646.066 826.223 648.7C831.045 650.231 833.628 650.533 841.164 650.339C849.802 650.117 850.448 650.192 853.395 652.093C864.768 659.571 884.99 659.235 905.239 651.312C923.532 644.128 948.34 627.812 961.406 614.326C965.881 609.705 966.858 608.392 966.65 607.478C966.191 605.789 965.242 606.411 957.83 612.992C940.588 628.517 920.56 641.308 903.082 648.011C889.703 653.229 876.05 655.051 865.744 653.063C861.628 652.204 854.986 649.662 854.919 648.882C854.911 648.606 856.854 647.315 859.209 645.967C864.235 643.033 866.518 640.721 868.616 636.621C870.801 632.335 870.504 628.112 867.751 624.873C864.906 621.635 863.274 620.804 859.638 620.667C855.496 620.498 851.822 622.386 848.524 626.333C844.159 631.595 843.208 637.32 845.702 642.912C846.387 644.457 846.704 646.012 846.346 646.389C845.452 647.332 835.333 647.224 830.523 646.153C816.511 643.157 803.426 631.815 796.684 616.907C795.314 613.816 793.867 611.278 793.544 611.24C792.342 610.995 792.136 611.874 792.753 614.341ZM854.57 625.442C857.332 623.853 862.302 624.001 864.189 625.792C867.869 629.284 867.266 634.265 862.388 639.31C858.363 643.552 852.451 646.003 850.564 644.212C848.206 641.974 847.336 636.938 848.567 633.09C849.889 629.24 851.313 627.456 854.57 625.442Z" fill="url(#paint43_linear_35_1706)"/>
<path d="M887.91 641.137C889.136 642.3 896.669 642.015 902.656 640.619C910.559 638.715 916.588 635.479 925.227 628.36C929.187 625.132 930.519 623.35 929.575 622.455C928.821 621.739 926.732 622.712 920.72 626.591C910.005 633.442 901.505 637.109 892.848 638.389C887.856 639.115 886.589 639.883 887.91 641.137Z" fill="url(#paint44_linear_35_1706)"/>
<path d="M977.01 558.015C977.181 559.252 979.258 563.014 983.389 569.621L986.273 574.329L981.997 584.692C977.073 596.589 976.655 598.163 977.929 599.372C979.438 600.804 982.166 599.631 989.472 594.293C993.305 591.482 996.736 589.095 997.193 588.991C998.152 588.736 1002.07 592.452 1008.09 599.424C1013.74 605.945 1014.44 606.249 1017.25 603.28C1018.24 602.243 1023.33 593.284 1028.49 583.404C1033.75 573.521 1039.05 563.684 1040.37 561.443C1043.19 556.68 1043.76 554.183 1042.36 553.207C1041.75 552.809 1037.7 552.821 1033.21 553.213C1028.71 553.604 1018.65 553.909 1010.83 553.834C986.964 553.666 985.034 553.716 982.145 554.02C979.257 554.324 976.825 556.226 977.01 558.015ZM994.011 557.577C1000.22 557.648 1009.33 557.689 1014.2 557.656C1019.07 557.623 1023.35 557.742 1023.68 557.872C1024.28 558.086 1021.01 559.458 1000.98 567.329C992.156 570.775 989.282 571.63 988.85 570.952C984.037 562.892 981.759 558.49 982.206 558.019C982.474 557.736 987.757 557.554 994.011 557.577ZM1012.28 566.671C1029.86 560.334 1032.78 559.523 1029.85 561.943C1020.05 570.012 1002.94 581.9 996.718 584.957C994.495 586.072 991.009 588.138 988.935 589.663C986.858 591.096 984.823 592.39 984.411 592.446C983.999 592.503 984.529 589.96 985.642 586.897C986.664 583.836 987.895 579.988 988.313 578.414L989.111 575.589L992.291 574.128C994.109 573.345 1003.08 569.942 1012.28 566.671ZM1006.87 583.041C1010.9 580.5 1031.07 566.05 1032.32 564.73C1033.53 563.55 1032.19 566.665 1028.73 573.237C1026.71 576.967 1022.96 584.604 1020.35 590.188C1017.79 595.726 1015.43 600.476 1015.16 600.759C1014.67 601.277 1013.06 599.664 1004.48 589.999C1002.87 588.201 1001.77 586.528 1002.04 586.245C1002.26 586.01 1004.48 584.528 1006.87 583.041Z" fill="url(#paint45_linear_35_1706)"/>
<path d="M349.778 644.106C348.939 644.458 345.483 647.316 342.032 650.524C338.582 653.731 334.876 656.834 333.761 657.372L331.712 658.372L326.991 647.107C322.319 635.961 322.243 635.782 320.327 635.247C316.383 634.082 313.411 636.243 302.948 647.956C299.234 652.049 295.954 655.326 295.699 655.221C295.443 655.117 295.273 646.805 295.391 636.822C295.483 626.78 295.446 617.778 295.284 616.719C294.708 613.156 290.798 611.061 287.439 612.469C285.1 613.45 281.771 617.452 270.364 632.8C264.017 641.378 257.914 649.361 256.736 650.419C252.612 654.543 252.147 651.92 254.1 633.7C256.465 611.081 256.468 604.528 253.995 606.198C252.836 606.966 252.107 610.442 249.914 625.733C246.692 647.654 247.217 655.466 252.013 657.823C255.652 659.609 259.741 655.57 273.653 636.776C287.763 617.617 289.021 616.244 289.9 618.341C290.151 618.941 290.214 625.818 290.038 633.642C289.598 655.806 290.031 660.204 292.945 661.941C295.213 663.315 297.936 661.399 305.528 652.933C314.843 642.688 317.33 640.377 318.436 640.83C319.032 641.073 320.162 643.769 321.968 649.423C326.339 662.879 328.809 665.577 334.627 663.138C338.526 661.504 341.047 659.108 346.976 651.551C351.851 645.351 352.717 642.874 349.778 644.106Z" fill="url(#paint46_linear_35_1706)"/>
<path d="M816.88 305.629C815.407 312.018 817.375 323.162 820.697 327.377C825.404 333.408 825.842 333.689 829.116 334.246C835.5 335.255 842.957 331.702 847.519 325.675C850.865 321.183 851.672 316.915 849.668 313.776C848.944 312.617 848.021 311.407 847.583 311.126C845.906 310.127 840.636 309.91 836.555 310.611L832.259 311.405L830.444 306.767C829.025 303.078 828.172 301.758 826.475 300.67C823.629 298.843 821.969 298.782 819.924 300.403C817.754 302.099 817.633 302.407 816.88 305.629ZM823.723 305.079C824.325 305.466 825.335 307.504 825.932 309.585C828.042 316.652 828.828 317.233 835.749 315.961C843.837 314.435 846.049 315.082 845.284 318.682C844.321 323.314 838.577 327.811 831.75 329.298L827.044 330.37L825.327 328.109C822.928 325.104 821.709 321.465 821.312 316.424C820.625 308.341 821.643 303.745 823.723 305.079Z" fill="url(#paint47_linear_35_1706)"/>
<path d="M761.92 393.57C759.099 402.181 762.717 411.837 770.708 416.964L774.594 419.458L768.582 428.106C758.175 443.12 745.812 455.644 732.608 464.541C728.475 467.37 725.076 469.898 725.135 470.168C725.386 471.101 728.92 470.049 733.081 467.778C747.283 460.216 763.806 444.34 774.902 427.529L780.029 419.779L783.571 419.196C796.029 417 806.28 405.359 811.636 387.258C813.659 380.373 815.591 370.497 817.14 359.293C818.3 350.62 818.324 347.933 817.339 347.301C816.409 346.704 815.203 350.871 812.933 363.079C807.447 391.981 801.46 405.045 790.503 411.524C787.56 413.341 783.042 414.842 782.221 414.316C782.002 414.175 782.095 413.308 782.437 412.293C782.799 411.367 783.369 407.95 783.763 404.807C784.576 398.844 783.882 393.303 781.834 389.75C780.233 386.947 776.128 384.313 773.241 384.237C768.639 384.063 763.734 388.095 761.92 393.57ZM771.447 389.802C773.344 389.012 775.803 390.358 777.385 393.071C779.636 396.909 779.41 406.413 776.961 412.639C776.373 414.037 776.033 414.205 774.618 413.76C770.245 412.267 766.189 405.341 766.229 399.5C766.192 395.462 768.636 390.931 771.447 389.802Z" fill="url(#paint48_linear_35_1706)"/>
<path d="M351.444 234.654C351.866 235.707 353.092 239.925 354.106 244.043C356.969 255.636 361.348 263.321 365.65 264.382C367.365 264.847 367.998 264.686 369.847 263.422C371.997 261.982 374.761 257.624 375.166 255.066C375.326 254.385 375.754 253.729 376.14 253.671C377.178 253.581 387.329 260.726 390.848 264.008C393.672 266.605 396.181 270.17 396.442 271.904C396.684 273.51 393.46 277.872 389.403 281.505C380.531 289.41 377.236 294.177 377.154 299.314C377.121 307.4 388.121 313.63 411.352 318.544C423.649 321.161 426.27 322.41 424.743 324.939C424.38 325.585 421.207 328.099 417.693 330.533C406.795 338.086 403.716 342.098 404.557 347.687C405.408 353.341 412.867 359.643 422.132 362.651C427.856 364.418 433.876 365.089 434.75 363.906C435.57 362.798 434.598 362.024 431.772 361.595C423.208 360.19 412.312 354.208 410.201 349.795C408.154 345.372 408.8 344.421 420.284 336.385C428.318 330.774 430.584 328.791 431.481 326.882C434.424 320.657 430.32 316.544 418.502 314.052C402.455 310.553 396.493 308.953 391.907 306.884C386.97 304.67 383.898 302.175 383.589 300.12C383.212 297.614 385.889 293.992 392.952 287.607C401.914 279.425 403.431 276.832 402.571 271.114C402.136 268.222 401.47 266.417 399.9 264.288C397.41 260.852 389.092 254.088 384.023 251.434L380.376 249.486L384.199 247.794C388.71 245.867 390.442 243.832 391.351 239.819C393.817 228.672 380.052 221.545 361.531 224.332C354.2 225.435 351.194 226.873 350.616 229.588C350.134 231.632 350.286 232.2 351.444 234.654ZM361.019 229.665C376.848 227.349 389.471 233.006 384.853 240.337C383.57 242.304 383.387 242.397 376.902 243.438C373.246 244.054 369.911 244.622 369.471 244.754C368.397 245.047 368.815 246.955 370.308 248.57C371.392 249.655 371.553 250.288 371.219 252.441C370.924 254.85 368.199 259.465 367.041 259.64C366.334 259.746 363.278 255.607 362.071 252.832C361.473 251.476 359.898 246.26 358.611 241.197C357.268 236.209 356.042 231.991 355.894 231.882C354.858 231.118 356.71 230.314 361.019 229.665Z" fill="url(#paint49_linear_35_1706)"/>
<path d="M845.288 492.455C843.673 492.429 841.058 493.257 838.261 494.788C835.86 496.061 833.723 497.131 833.588 497.187C833.454 497.242 832.612 495.043 831.738 492.386C829.984 486.979 827.931 484.588 824.321 483.687C821.697 483.041 817.389 484.723 815.254 487.176C810.436 492.81 811.146 505.155 816.877 514.8C820.724 521.167 820.791 520.793 812.148 531.118L804.737 539.928L804.609 534.039C804.38 524.01 798.935 513.839 793.781 513.922C791.757 513.97 789.896 515.713 789.418 518.142C788.824 520.902 789.395 527.865 790.446 530.418C791.509 533.155 795.651 539.777 798.115 542.785L799.77 544.743L796.352 547.976C788.566 555.338 772.914 564.906 757.715 571.679C749.841 575.084 748.515 575.914 749.398 576.682C751.309 578.345 769.026 571.351 781.424 564.037C789.308 559.433 798.918 552.451 801.309 549.704C803.145 547.595 804.667 547.627 809.105 549.852C817.497 553.967 829.279 553.791 836.069 549.355C839.953 546.873 840.218 542.016 836.496 540.156C832.769 538.204 824.006 538.078 814.496 539.8L811.219 540.397L814.373 536.676C816.075 534.622 818.953 530.92 820.764 528.444C823.958 523.982 824.093 523.927 827.967 522.643C834.096 520.65 839.036 517.449 844.027 512.309C849.53 506.581 851.192 503.286 850.962 498.602C850.764 494.377 849.024 492.517 845.288 492.455ZM847.057 499.427C847.132 503.2 842.394 509.336 836.239 513.635C830.475 517.584 825.185 519.704 824.491 518.324C824.221 517.744 822.963 515.528 821.754 513.354C818.36 507.555 817.265 504.36 816.876 499.365C816.455 493.911 817.725 490.275 820.712 488.823C824.896 486.688 827.441 490.197 827.88 498.598C828.362 506.95 829.984 507.759 834.858 502.259C836.737 500.1 840.755 497.563 843.56 496.814C845.546 496.215 847.046 497.262 847.057 499.427ZM832.92 546.441C830.679 548.026 819.112 548.648 814.56 547.444C812.45 546.9 810.749 546.282 810.73 546.006C810.622 544.447 825.367 542.452 830.951 543.261C834.767 543.824 835.338 544.752 832.92 546.441ZM798.519 525.202C799.342 527.126 800.138 530.664 800.296 532.957L800.628 537.127L799.036 536.086C795.797 533.87 792.901 525.916 793.79 521.431L794.232 519.143L795.604 520.337C796.388 521.02 797.689 523.187 798.519 525.202Z" fill="url(#paint50_linear_35_1706)"/>
<path d="M874.84 406.366C873.931 407.081 872.177 409.357 871.007 411.373L868.863 415.08L861.846 415.6C853.66 416.251 851.97 416.771 850.996 418.917C849.826 421.453 850.736 423.209 855.544 428.087C858.078 430.558 860.157 433.029 860.157 433.484C860.157 433.939 859.377 436.931 858.468 440.053C857.493 443.239 856.908 446.361 857.168 446.946C857.753 448.572 860.157 447.921 866.329 444.41C869.188 442.784 871.852 441.418 872.177 441.418C872.566 441.418 874.581 442.329 876.725 443.369C881.273 445.58 883.482 445.775 885.561 444.085C886.86 443.044 887.12 442.134 887.315 437.972L887.575 433.029L891.603 430.493C896.801 427.046 899.01 425.03 899.53 422.884C900.309 419.632 896.281 417.421 889.589 417.356C885.626 417.356 883.677 416.381 883.157 414.3C882.442 411.373 880.558 407.276 879.323 406.106C877.894 404.675 876.92 404.74 874.84 406.366ZM877.049 415.145C877.049 415.665 876.595 416.056 876.075 416.056C874.97 416.056 874.905 415.925 875.49 414.495C875.945 413.324 877.049 413.714 877.049 415.145ZM865.355 422.234C865.355 423.079 863.795 426.461 863.405 426.461C862.626 426.461 858.857 423.209 858.857 422.559C858.857 422.234 859.507 421.908 860.352 421.778C861.716 421.583 865.355 421.908 865.355 422.234ZM877.244 422.494C878.934 423.144 879.259 423.859 879.973 427.761C880.363 429.973 880.298 430.103 876.855 431.989L873.281 433.874L870.682 432.119L868.018 430.363L868.993 427.566C870.747 422.494 873.216 420.998 877.244 422.494ZM890.304 424.12C889.914 425.16 886.925 426.591 886.146 426.136C885.886 426.006 885.496 425.225 885.301 424.51C884.976 423.339 885.301 423.209 887.835 423.209C889.914 423.209 890.564 423.404 890.304 424.12ZM866.004 437.126C866.004 437.321 865.744 437.646 865.355 437.841C865.03 438.037 864.705 437.906 864.705 437.581C864.705 437.191 865.03 436.866 865.355 436.866C865.744 436.866 866.004 436.996 866.004 437.126Z" fill="url(#paint51_linear_35_1706)"/>
<path d="M173.565 565.702C173.527 566.859 174.139 569.666 174.929 571.859L176.386 575.886L172.267 581.591C167.495 588.274 166.806 589.902 167.821 592.029C169.009 594.557 170.938 594.991 177.766 594.451C181.288 594.103 184.518 594.102 184.866 594.395C185.214 594.688 187.002 597.211 188.805 599.916C190.617 602.713 192.629 605.17 193.244 605.348C194.865 605.947 195.915 603.689 197.2 596.705C197.796 593.47 198.466 590.553 198.675 590.304C198.926 590.006 200.919 589.05 203.095 588.079C207.715 586.022 209.286 584.457 209.331 581.778C209.371 580.114 208.841 579.329 205.782 576.5L202.167 573.12L202.819 568.405C203.527 562.208 203.406 559.22 202.098 557.441C200.112 554.751 195.827 556.411 191.469 561.49C188.918 564.523 186.917 565.387 184.99 564.445C182.29 563.108 177.942 561.913 176.251 562.104C174.236 562.277 173.659 563.065 173.565 565.702ZM181.705 569.663C182.103 569.998 182.109 570.597 181.775 570.995C181.064 571.84 180.922 571.806 180.204 570.438C179.601 569.336 180.61 568.742 181.705 569.663ZM179.602 583.176C180.249 583.72 181.833 587.09 181.582 587.388C181.08 587.985 176.166 588.776 175.669 588.357C175.42 588.148 175.589 587.441 176.033 586.711C176.762 585.541 179.353 582.966 179.602 583.176ZM187.455 574.244C189.04 573.37 189.796 573.582 193.242 575.547C195.185 576.672 195.243 576.805 194.47 580.654L193.613 584.603L190.596 585.462L187.538 586.37L186.025 583.824C183.272 579.216 183.717 576.364 187.455 574.244ZM197.105 565.297C197.65 566.265 196.821 569.473 195.971 569.777C195.704 569.892 194.856 569.688 194.183 569.376C193.078 568.871 193.188 568.539 194.819 566.6C196.157 565.009 196.725 564.637 197.105 565.297ZM191.417 592.265C191.566 592.39 191.648 592.799 191.546 593.222C191.486 593.597 191.178 593.762 190.929 593.552C190.63 593.301 190.591 592.843 190.8 592.595C191.051 592.296 191.318 592.181 191.417 592.265Z" fill="url(#paint52_linear_35_1706)"/>
<path d="M259.16 241.877C259.122 243.034 259.735 245.842 260.525 248.034L261.982 252.061L257.863 257.766C253.091 264.45 252.402 266.077 253.417 268.205C254.605 270.732 256.534 271.166 263.362 270.626C266.884 270.278 270.113 270.278 270.462 270.571C270.81 270.864 272.598 273.386 274.401 276.092C276.212 278.889 278.225 281.345 278.84 281.523C280.46 282.122 281.51 279.864 282.796 272.88C283.392 269.646 284.061 266.728 284.271 266.479C284.521 266.181 286.515 265.226 288.691 264.255C293.311 262.198 294.882 260.633 294.926 257.953C294.967 256.289 294.437 255.504 291.377 252.676L287.762 249.295L288.414 244.58C289.123 238.384 289.002 235.395 287.694 233.616C285.707 230.926 281.422 232.586 277.065 237.665C274.514 240.698 272.512 241.562 270.585 240.62C267.886 239.283 263.537 238.088 261.847 238.279C259.832 238.452 259.254 239.24 259.16 241.877ZM267.301 245.838C267.699 246.173 267.705 246.772 267.37 247.17C266.659 248.015 266.518 247.981 265.8 246.613C265.197 245.511 266.206 244.917 267.301 245.838ZM265.198 259.351C265.845 259.895 267.429 263.265 267.178 263.564C266.676 264.16 261.762 264.951 261.264 264.532C261.015 264.323 261.185 263.617 261.629 262.887C262.358 261.717 264.949 259.142 265.198 259.351ZM273.05 250.419C274.635 249.545 275.392 249.757 278.838 251.722C280.781 252.847 280.839 252.98 280.065 256.83L279.208 260.778L276.192 261.637L273.133 262.545L271.621 259.999C268.868 255.392 269.313 252.539 273.05 250.419ZM282.701 241.472C283.246 242.44 282.417 245.648 281.567 245.952C281.3 246.067 280.452 245.863 279.779 245.552C278.674 245.047 278.784 244.714 280.415 242.775C281.753 241.184 282.321 240.813 282.701 241.472ZM277.013 268.44C277.162 268.566 277.244 268.974 277.142 269.398C277.082 269.772 276.774 269.937 276.525 269.728C276.226 269.476 276.186 269.018 276.395 268.77C276.646 268.472 276.913 268.356 277.013 268.44Z" fill="url(#paint53_linear_35_1706)"/>
<path d="M121.793 610.056C120.432 610.174 118.099 611.042 116.588 611.938C114.28 613.301 113.613 614.163 112.095 617.692C110.561 621.076 110.351 622.386 110.566 625.727L110.882 629.729L105.918 630.591C99.586 631.777 91.6237 631.941 83.4686 631.132C78.1815 630.625 75.5711 630.003 68.7879 627.553C64.2808 625.879 59.9635 624.067 59.1787 623.567C58.4166 623.007 57.2977 622.661 56.6972 622.784C55.7016 623.039 55.6563 623.161 56.2443 624.004C57.9318 626.365 61.7252 628.467 69.1784 631.166C75.8172 633.632 78.2222 634.248 84.369 634.866C92.5624 635.759 100.342 635.526 107.746 634.253C112.831 633.436 112.831 633.436 113.863 635.137C115.575 637.993 121.074 643.712 125.083 646.728C132.355 652.342 140.304 655.572 156.392 659.466L159.573 660.232L160.223 664.08C162.009 674.387 172.918 686.069 184.916 690.526C193.504 693.716 205.888 694.708 218.585 693.18C225.686 692.349 230.208 691.184 230.615 690.087C230.977 689.111 229.563 689.002 220.521 689.459C204.294 690.231 197.021 689.472 187.885 686.079C177.653 682.278 170.623 676.199 166.759 667.757C163.545 660.736 163.742 660.392 170.693 660.338C187.72 660.211 200.892 651.991 198.737 642.866C197.374 637.018 191.715 634.153 182.994 634.868C177.079 635.307 170.44 638.253 166.359 642.148C164.023 644.333 162.849 646.186 161.134 650.058L158.867 655.044L154.476 654.176C152.087 653.705 146.979 652.155 143.081 650.707C132.361 646.725 124.765 641.614 119.765 635.109L117.543 632.134L121.538 630.149C126.117 627.895 130.471 623.824 131.603 620.776C132.6 618.093 131.851 614.138 130.074 612.577C128.1 610.803 124.537 609.757 121.793 610.056ZM127.929 617.607C127.93 620.59 124.26 624.5 119.52 626.624C116.307 627.998 115.743 627.649 115.323 624.302C114.872 620.666 117.301 616.365 120.468 615.114C123.948 613.77 127.891 615.096 127.929 617.607ZM193.763 642.822C194.321 643.932 194.584 645.278 194.38 645.826C193.044 649.423 185.451 653.818 178.792 654.952C175.151 655.612 166.383 655.893 165.165 655.441C164.799 655.305 165.145 653.629 165.869 651.678C168.292 645.155 175.427 640.313 183.844 639.485C189.371 638.971 192.523 640.003 193.763 642.822Z" fill="url(#paint54_linear_35_1706)"/>
<path d="M1003.76 337.137C993.576 333.069 978.468 334.57 967.359 340.734C963.442 342.954 962.53 343.058 958.882 341.277C954.157 339.02 944.013 337.294 939.774 338.115C935.826 338.853 933.588 343.105 935.194 346.805C936.54 349.873 943.597 357.82 948.891 362.347C951.244 364.264 952.166 366.119 952.466 370.192C955.096 397.538 979.487 415.355 1004.91 408.468C1013.22 406.245 1013.36 406.204 1021.62 409.568C1035.24 414.931 1044.12 413.879 1044.71 406.881C1045.04 402.548 1040.35 396.279 1033.87 392.561C1028.89 389.671 1028.52 389.226 1029.3 386.727C1033.88 371.444 1028.54 353.824 1016.56 344.853C1014.53 343.237 1012.03 341.362 1011.06 340.7C1010.13 339.943 1006.86 338.369 1003.76 337.137ZM1016.66 352.359C1021.36 357.529 1025.49 370.08 1024.97 377.607C1024.68 380.986 1023.54 385.237 1022.19 387.664C1019.39 392.703 1014.69 397.661 1012.53 397.807C1010.43 397.86 992.836 387.358 978.091 377.217C957.513 362.861 957.689 363.203 962.405 354.71C968.83 343.138 982.374 336.983 994.612 339.993C1001.94 341.741 1012.33 347.634 1016.66 352.359ZM957.327 352.868C954.425 358.094 954.031 358.364 952.166 357.328C949.648 355.93 943.431 349.548 941.37 346.449C940.655 345.32 940.52 344.024 941.204 343.671C943.163 342.561 954.281 343.85 957.452 345.611L960.436 347.268L957.327 352.868ZM1036.69 402.428C1038.14 404.21 1038.82 406.055 1038.27 406.605C1036.53 408.202 1030.98 407.438 1024.75 404.591L1018.94 402.095L1021 399.7C1025.77 394.41 1025.62 394.452 1030.01 396.886C1032.34 398.18 1035.33 400.698 1036.69 402.428ZM985.095 388.554C995.633 395.505 1004.4 401.471 1004.52 401.906C1004.95 403.119 998.182 403.879 991.467 403.448C982.089 402.758 971.789 396.917 965.925 389.021C962.05 383.695 957.999 373.631 959.035 371.765C959.295 371.298 960.932 372.085 962.735 373.452C964.444 374.768 974.557 381.604 985.095 388.554Z" fill="url(#paint55_linear_35_1706)"/>
<path d="M196.192 405.913C193.463 407.084 190.149 411.051 189.694 413.717C188.395 420.351 195.282 427.244 204.833 429.065C209.446 429.91 212.5 429.26 215.098 426.789C216.983 424.968 217.307 424.252 217.307 421.651C217.307 415.928 213.344 411.571 207.627 410.986C201.129 410.401 198.401 413.912 201.129 419.505C203.533 424.448 206.327 424.318 204.963 419.375C204.573 417.879 204.443 416.384 204.638 416.058C205.807 414.172 211.655 416.774 212.759 419.7C213.669 421.976 213.604 422.367 212.11 423.862C208.276 427.699 195.412 422.887 193.658 416.904C193.008 414.823 194.827 411.051 197.296 409.555C199.05 408.45 200.415 408.254 205.158 408.32C208.276 408.385 211.005 408.254 211.2 408.059C213.474 405.783 200.61 403.962 196.192 405.913Z" fill="url(#paint56_linear_35_1706)"/>
<path d="M799.192 436.913C796.463 438.084 793.149 442.051 792.694 444.717C791.395 451.351 798.282 458.244 807.833 460.065C812.446 460.91 815.5 460.26 818.098 457.789C819.983 455.968 820.307 455.252 820.307 452.651C820.307 446.928 816.344 442.571 810.627 441.986C804.129 441.401 801.401 444.912 804.129 450.505C806.533 455.448 809.327 455.318 807.963 450.375C807.573 448.879 807.443 447.384 807.638 447.058C808.807 445.172 814.655 447.774 815.759 450.7C816.669 452.976 816.604 453.367 815.11 454.862C811.276 458.699 798.412 453.887 796.658 447.904C796.008 445.823 797.827 442.051 800.296 440.555C802.05 439.45 803.415 439.254 808.158 439.32C811.276 439.385 814.005 439.254 814.2 439.059C816.474 436.783 803.61 434.962 799.192 436.913Z" fill="url(#paint57_linear_35_1706)"/>
<path d="M901.192 565.913C898.463 567.084 895.149 571.051 894.694 573.717C893.395 580.351 900.282 587.244 909.833 589.065C914.446 589.91 917.5 589.26 920.098 586.789C921.983 584.968 922.307 584.252 922.307 581.651C922.307 575.928 918.344 571.571 912.627 570.986C906.129 570.401 903.401 573.912 906.129 579.505C908.533 584.448 911.327 584.318 909.963 579.375C909.573 577.879 909.443 576.384 909.638 576.058C910.807 574.172 916.655 576.774 917.759 579.7C918.669 581.976 918.604 582.367 917.11 583.862C913.276 587.699 900.412 582.887 898.658 576.904C898.008 574.823 899.827 571.051 902.296 569.555C904.05 568.45 905.415 568.254 910.158 568.32C913.276 568.385 916.005 568.254 916.2 568.059C918.474 565.783 905.61 563.962 901.192 565.913Z" fill="url(#paint58_linear_35_1706)"/>
<path d="M88.7366 511.513C91.31 512.615 91.6325 511.098 89.5197 507.79C86.7639 503.471 86.6749 497.22 89.343 492.438C91.4132 488.622 90.7244 487.106 87.6441 488.808C84.058 490.924 81.9875 495.383 82.2609 500.439C82.6261 505.863 85.0143 509.906 88.7366 511.513Z" fill="url(#paint59_linear_35_1706)"/>
<path d="M110.842 518.903C115.805 521.291 119.665 522.116 125.365 522.022C131.892 521.927 137.592 520.729 143.43 518.198C146.005 517.094 148.257 516.128 148.441 516.128C148.579 516.082 148.808 517.782 148.945 519.942C149.356 526.055 153.076 531.615 157.396 532.532C162.222 533.495 169.577 531.194 177.026 526.41C179.554 524.8 182.267 523.374 182.956 523.328C183.692 523.236 189.023 523.969 194.768 524.931C205.661 526.719 209.659 526.855 211.177 525.337C212.281 524.233 211.316 523.269 207.869 522.121C206.398 521.662 203.228 519.779 200.839 517.942C198.541 516.104 194.452 513.302 191.787 511.649C183.102 506.275 181.586 505.127 181.449 503.794C181.403 503.105 181.818 500.117 182.417 497.129C184.168 488.211 182.654 481.363 178.014 476.631C174.155 472.772 167.996 471.856 160.917 474.157L158.572 474.848L158.896 471.676C159.588 465.839 159.086 457.703 157.847 454.073C156.24 449.431 152.795 445.71 149.256 444.746C145.166 443.691 139.695 445.854 134.407 450.682L130.039 454.591L128.89 452.891C118.647 437.958 106.563 430.012 94.9337 430.615C91.0267 430.846 85.9699 432.779 83.8546 434.895C81.8772 436.872 79.8065 441.975 79.6209 445.56C78.9731 454.937 86.1851 464.08 101.119 472.852C104.336 474.781 107.138 476.664 107.322 477.124C107.552 477.538 106.172 479.561 103.643 482.457C97.2962 489.723 95.8237 493.309 96.7399 499.835C97.7935 507.602 103.627 515.551 110.842 518.903ZM101.196 503.924C98.2123 496.525 99.4554 492.066 106.538 483.973C113.16 476.432 112.976 475.972 102.04 469.359C97.353 466.511 94.6422 464.444 90.783 460.585C86.1888 456.083 85.5457 455.164 84.3063 451.717C79.9454 439.814 89.9694 431.169 102.837 435.851C110.42 438.559 116.99 444.026 123.788 453.215C127.279 457.902 127.876 458.499 129.439 458.866C131.461 459.233 131.093 459.509 136.658 454.129C149.257 441.896 157.573 449.66 154.989 471.356C154.527 475.309 154.48 478.849 154.801 479.17C155.674 480.043 157.237 479.767 160.271 478.294C165.696 475.718 172.223 476.082 175.393 479.252C178.976 482.836 180.076 490.649 178.141 499.383C177.266 503.199 177.725 505.772 179.562 507.61C180.114 508.161 183.973 510.825 188.109 513.489C198.402 520.195 200.285 521.527 199.734 522.079C199.458 522.355 195.689 521.897 191.323 521.026C186.957 520.246 182.682 519.743 181.855 519.927C180.981 520.157 178.591 521.445 176.522 522.779C169.119 527.609 161.488 530.186 157.72 529.085C154.089 527.938 151.289 521.09 152.394 515.85C153.085 512.862 152.351 510.932 150.65 510.979C149.96 511.025 147.524 512.083 145.179 513.234C133.594 519.306 120.08 519.864 110.706 514.721C107.168 512.746 102.666 507.692 101.196 503.924Z" fill="url(#paint60_linear_35_1706)"/>
<path d="M131.059 532.499C132.162 532.406 134.782 531.992 136.851 531.485L140.666 530.61L142.228 533.735C143.835 537.089 145.581 538.559 146.592 537.548C146.914 537.226 146.961 536.26 146.685 535.341C146.41 534.514 145.814 531.986 145.447 529.78C144.301 524.127 143.473 523.944 134.968 527.671C131.153 529.281 128.072 530.8 128.072 531.075C128.072 532.087 129.221 532.592 131.059 532.499Z" fill="url(#paint61_linear_35_1706)"/>
<path d="M186.306 535.323C190.994 535.137 197.016 534.353 198.487 533.708C200.096 532.926 199.499 531.686 197.431 531.549C194.627 531.412 182.86 532.98 182.308 533.532C181.112 534.728 182.767 535.462 186.306 535.323Z" fill="url(#paint62_linear_35_1706)"/>
<path d="M200.795 511.461C207.229 514.492 209.941 514.812 208.655 512.331C208.058 511.182 198.683 506.498 196.569 506.315C193.398 505.995 195.924 509.073 200.795 511.461Z" fill="url(#paint63_linear_35_1706)"/>
<path d="M138.273 439.833C138.732 439.925 140.341 439.602 141.904 439.142C145.444 437.991 148.064 438.036 151.832 439.505C155.83 441.02 160.103 445.201 161.985 449.566C163.317 452.553 163.455 452.783 164.466 452.323C165.937 451.679 165.434 447.129 163.551 443.774C160.612 438.536 153.122 433.897 147.744 434.037C144.343 434.131 140.067 435.65 138.182 437.535C136.71 439.007 136.71 439.558 138.273 439.833Z" fill="url(#paint64_linear_35_1706)"/>
<path d="M503.987 1.50179C500.946 3.03318 497.38 6.83063 496.233 9.84761C494.39 14.7031 493.526 22.8017 494.527 26.9755C495.421 30.7067 495.103 31.0506 491.575 30.8264C484.675 30.4742 478.531 33.5521 477.45 37.9577C476.631 41.2303 478.023 45.6447 481.076 49.4603C483.926 52.9901 489.845 57.0549 493.335 57.9569C495.819 58.5651 495.974 58.9294 494.455 61.2329C492.6 64.0852 492.865 66.0278 495.7 69.4943C499.44 73.9477 504.535 76.8056 512.458 78.9187C523.636 81.7896 534.215 81.3265 537.763 77.7339C539.019 76.5634 542.113 69.4017 542.95 65.9242C542.983 65.7826 544.256 66.0791 545.813 66.4415C547.873 66.9509 549.26 66.8857 551.221 66.1481C560.949 62.4116 573.618 42.5216 574.85 28.9851C575.269 24.6045 573.452 16.7475 571.413 14.0933C568.004 9.62744 561.903 8.14752 557.703 10.6926C554.898 12.3683 552.512 14.6791 549.845 18.3277C548.68 19.8776 547.581 21.1443 547.328 21.2049C547.076 21.2655 546.176 19.7424 545.248 17.8248C542.236 11.3913 537.192 8.18683 531.887 9.19108C529.029 9.80947 528.872 9.71328 526.818 6.99583C524.67 4.16704 520.017 1.20305 516.385 0.268072C514.687 -0.127279 507.217 -0.075048 506.251 0.35703C506.077 0.465713 505.048 0.912938 503.987 1.50179ZM512.994 5.62873C516.772 6.06044 520.206 7.84519 522.655 10.535L524.775 12.9692L523.166 16.5652C521.136 21.198 520.666 24.2533 521.252 28.9277C521.74 32.3552 521.578 32.7953 519.73 34.8432C516.483 38.2968 514.989 47.9506 516.548 54.7325C516.851 55.9973 516.935 57.1811 516.791 57.4162C516.662 57.7146 514.599 57.4734 512.209 56.9766C509.818 56.4797 506.275 56.1923 504.288 56.2673C497.824 56.6134 490.624 53.0563 485.653 47.0924C483.035 43.9751 482.069 41.0634 482.956 38.9113C483.907 36.7441 489.211 35.7398 494.466 36.754C498.822 37.6488 501.299 37.3894 501.784 36.0693C501.946 35.6293 501.502 32.6596 500.791 29.4192C498.773 19.6044 500.299 11.4809 504.871 7.97731C507.618 5.78057 509.435 5.27806 512.994 5.62873ZM534.743 13.8565C537.793 14.5965 540.406 18.25 542.193 24.3086C544.806 32.9779 546.539 32.9635 552.408 23.9996C557.205 16.6971 560.382 14.063 563.654 14.6158C566.361 15.037 568.087 17.4988 569.315 22.6213C570.452 27.3643 569.545 33.3331 566.628 40.118C562.824 49.055 553.481 60.5238 549.121 61.569C547.1 62.0537 543.604 61.6879 543.438 60.9922C543.455 60.7874 543.38 58.7993 543.385 56.5912C543.418 51.4338 541.583 43.7817 539.428 40.0854C536.916 35.7388 533.239 32.9422 528.74 32.0144C525.012 31.2362 524.856 31.14 524.765 29.0887C524.603 24.513 526.292 19.2933 528.998 16.3706C531.912 13.1976 532.039 13.1673 534.743 13.8565ZM531.244 38.8372C533.984 40.7886 536.155 44.5482 537.352 49.5442C539.063 56.9585 537.85 68.6182 534.609 74.6113L533.037 77.5294L528.044 77.3222C517.993 76.9231 507.593 73.3975 501.73 68.4499C498.541 65.737 498.197 63.7463 500.669 62.3512C503.378 60.8323 506.403 60.9096 513.275 62.5391C519.785 64.0546 521.519 64.0402 522.338 62.4395C522.595 61.8427 522.406 58.5444 521.951 54.9752C520.984 47.3159 521.246 42.8391 522.836 39.7161C523.817 37.6754 524.277 37.3645 526.311 37.2111C527.936 37.0222 529.475 37.5894 531.244 38.8372Z" fill="url(#paint65_linear_35_1706)"/>
<defs>
<linearGradient id="paint0_linear_35_1706" x1="666.465" y1="37.6651" x2="659.527" y2="192.279" gradientUnits="userSpaceOnUse">
<stop stop-color="#42307D"/>
<stop offset="1" stop-color="#7F56D9"/>
</linearGradient>
<linearGradient id="paint1_linear_35_1706" x1="680.689" y1="156.158" x2="688.679" y2="174.108" gradientUnits="userSpaceOnUse">
<stop stop-color="#42307D"/>
<stop offset="1" stop-color="#7F56D9"/>
</linearGradient>
<linearGradient id="paint2_linear_35_1706" x1="709.458" y1="177.453" x2="717.618" y2="191.934" gradientUnits="userSpaceOnUse">
<stop stop-color="#42307D"/>
<stop offset="1" stop-color="#7F56D9"/>
</linearGradient>
<linearGradient id="paint3_linear_35_1706" x1="641.072" y1="139.032" x2="647.473" y2="153.636" gradientUnits="userSpaceOnUse">
<stop stop-color="#42307D"/>
<stop offset="1" stop-color="#7F56D9"/>
</linearGradient>
<linearGradient id="paint4_linear_35_1706" x1="670.976" y1="183.532" x2="678.263" y2="202.257" gradientUnits="userSpaceOnUse">
<stop stop-color="#42307D"/>
<stop offset="1" stop-color="#7F56D9"/>
</linearGradient>
<linearGradient id="paint5_linear_35_1706" x1="635.91" y1="166.303" x2="640.761" y2="177.455" gradientUnits="userSpaceOnUse">
<stop stop-color="#42307D"/>
<stop offset="1" stop-color="#7F56D9"/>
</linearGradient>
<linearGradient id="paint6_linear_35_1706" x1="341.211" y1="116.087" x2="407.575" y2="236.581" gradientUnits="userSpaceOnUse">
<stop stop-color="#42307D"/>
<stop offset="1" stop-color="#7F56D9"/>
</linearGradient>
<linearGradient id="paint7_linear_35_1706" x1="363.281" y1="138.293" x2="432.505" y2="251.033" gradientUnits="userSpaceOnUse">
<stop stop-color="#42307D"/>
<stop offset="1" stop-color="#7F56D9"/>
</linearGradient>
<linearGradient id="paint8_linear_35_1706" x1="331.537" y1="169.315" x2="354.752" y2="182.848" gradientUnits="userSpaceOnUse">
<stop stop-color="#42307D"/>
<stop offset="1" stop-color="#7F56D9"/>
</linearGradient>
<linearGradient id="paint9_linear_35_1706" x1="500.471" y1="183.712" x2="516.316" y2="189.695" gradientUnits="userSpaceOnUse">
<stop stop-color="#42307D"/>
<stop offset="1" stop-color="#7F56D9"/>
</linearGradient>
<linearGradient id="paint10_linear_35_1706" x1="658.535" y1="253.823" x2="803.436" y2="384.988" gradientUnits="userSpaceOnUse">
<stop stop-color="#42307D"/>
<stop offset="1" stop-color="#7F56D9"/>
</linearGradient>
<linearGradient id="paint11_linear_35_1706" x1="697.596" y1="279.172" x2="722.941" y2="283.543" gradientUnits="userSpaceOnUse">
<stop stop-color="#42307D"/>
<stop offset="1" stop-color="#7F56D9"/>
</linearGradient>
<linearGradient id="paint12_linear_35_1706" x1="754.41" y1="304.436" x2="804.361" y2="336.707" gradientUnits="userSpaceOnUse">
<stop stop-color="#42307D"/>
<stop offset="1" stop-color="#7F56D9"/>
</linearGradient>
<linearGradient id="paint13_linear_35_1706" x1="682.622" y1="353.815" x2="690.604" y2="360.6" gradientUnits="userSpaceOnUse">
<stop stop-color="#42307D"/>
<stop offset="1" stop-color="#7F56D9"/>
</linearGradient>
<linearGradient id="paint14_linear_35_1706" x1="727.799" y1="364.665" x2="734.05" y2="375.244" gradientUnits="userSpaceOnUse">
<stop stop-color="#42307D"/>
<stop offset="1" stop-color="#7F56D9"/>
</linearGradient>
<linearGradient id="paint15_linear_35_1706" x1="228.979" y1="346.908" x2="396.093" y2="311.934" gradientUnits="userSpaceOnUse">
<stop stop-color="#42307D"/>
<stop offset="1" stop-color="#7F56D9"/>
</linearGradient>
<linearGradient id="paint16_linear_35_1706" x1="415.48" y1="556.763" x2="415.065" y2="563.004" gradientUnits="userSpaceOnUse">
<stop stop-color="#42307D"/>
<stop offset="1" stop-color="#7F56D9"/>
</linearGradient>
<linearGradient id="paint17_linear_35_1706" x1="339.278" y1="509.244" x2="347.696" y2="546.07" gradientUnits="userSpaceOnUse">
<stop stop-color="#42307D"/>
<stop offset="1" stop-color="#7F56D9"/>
</linearGradient>
<linearGradient id="paint18_linear_35_1706" x1="386.97" y1="543.984" x2="385.811" y2="549.974" gradientUnits="userSpaceOnUse">
<stop stop-color="#42307D"/>
<stop offset="1" stop-color="#7F56D9"/>
</linearGradient>
<linearGradient id="paint19_linear_35_1706" x1="372.618" y1="537.215" x2="371.019" y2="544.304" gradientUnits="userSpaceOnUse">
<stop stop-color="#42307D"/>
<stop offset="1" stop-color="#7F56D9"/>
</linearGradient>
<linearGradient id="paint20_linear_35_1706" x1="355.658" y1="530.089" x2="353.877" y2="537.778" gradientUnits="userSpaceOnUse">
<stop stop-color="#42307D"/>
<stop offset="1" stop-color="#7F56D9"/>
</linearGradient>
<linearGradient id="paint21_linear_35_1706" x1="350.618" y1="539.519" x2="349.414" y2="547.054" gradientUnits="userSpaceOnUse">
<stop stop-color="#42307D"/>
<stop offset="1" stop-color="#7F56D9"/>
</linearGradient>
<linearGradient id="paint22_linear_35_1706" x1="236.152" y1="460.248" x2="242.504" y2="495.31" gradientUnits="userSpaceOnUse">
<stop stop-color="#42307D"/>
<stop offset="1" stop-color="#7F56D9"/>
</linearGradient>
<linearGradient id="paint23_linear_35_1706" x1="318.729" y1="517.819" x2="317.22" y2="522.528" gradientUnits="userSpaceOnUse">
<stop stop-color="#42307D"/>
<stop offset="1" stop-color="#7F56D9"/>
</linearGradient>
<linearGradient id="paint24_linear_35_1706" x1="305.056" y1="510.253" x2="303.443" y2="515.58" gradientUnits="userSpaceOnUse">
<stop stop-color="#42307D"/>
<stop offset="1" stop-color="#7F56D9"/>
</linearGradient>
<linearGradient id="paint25_linear_35_1706" x1="370.595" y1="556.046" x2="375.735" y2="591.022" gradientUnits="userSpaceOnUse">
<stop stop-color="#42307D"/>
<stop offset="1" stop-color="#7F56D9"/>
</linearGradient>
<linearGradient id="paint26_linear_35_1706" x1="287.927" y1="499.636" x2="286.573" y2="504.483" gradientUnits="userSpaceOnUse">
<stop stop-color="#42307D"/>
<stop offset="1" stop-color="#7F56D9"/>
</linearGradient>
<linearGradient id="paint27_linear_35_1706" x1="271.683" y1="489.802" x2="270.071" y2="494.483" gradientUnits="userSpaceOnUse">
<stop stop-color="#42307D"/>
<stop offset="1" stop-color="#7F56D9"/>
</linearGradient>
<linearGradient id="paint28_linear_35_1706" x1="327.862" y1="529.733" x2="329.53" y2="536.321" gradientUnits="userSpaceOnUse">
<stop stop-color="#42307D"/>
<stop offset="1" stop-color="#7F56D9"/>
</linearGradient>
<linearGradient id="paint29_linear_35_1706" x1="359.429" y1="552.529" x2="359.07" y2="560.635" gradientUnits="userSpaceOnUse">
<stop stop-color="#42307D"/>
<stop offset="1" stop-color="#7F56D9"/>
</linearGradient>
<linearGradient id="paint30_linear_35_1706" x1="256.404" y1="481.612" x2="255.022" y2="487.157" gradientUnits="userSpaceOnUse">
<stop stop-color="#42307D"/>
<stop offset="1" stop-color="#7F56D9"/>
</linearGradient>
<linearGradient id="paint31_linear_35_1706" x1="316.973" y1="531.732" x2="320.01" y2="541.45" gradientUnits="userSpaceOnUse">
<stop stop-color="#42307D"/>
<stop offset="1" stop-color="#7F56D9"/>
</linearGradient>
<linearGradient id="paint32_linear_35_1706" x1="247.981" y1="493.13" x2="248.188" y2="499.096" gradientUnits="userSpaceOnUse">
<stop stop-color="#42307D"/>
<stop offset="1" stop-color="#7F56D9"/>
</linearGradient>
<linearGradient id="paint33_linear_35_1706" x1="355.143" y1="567.817" x2="354.806" y2="573.174" gradientUnits="userSpaceOnUse">
<stop stop-color="#42307D"/>
<stop offset="1" stop-color="#7F56D9"/>
</linearGradient>
<linearGradient id="paint34_linear_35_1706" x1="344.405" y1="565.083" x2="344.079" y2="572.683" gradientUnits="userSpaceOnUse">
<stop stop-color="#42307D"/>
<stop offset="1" stop-color="#7F56D9"/>
</linearGradient>
<linearGradient id="paint35_linear_35_1706" x1="252.187" y1="503.489" x2="253.56" y2="511.241" gradientUnits="userSpaceOnUse">
<stop stop-color="#42307D"/>
<stop offset="1" stop-color="#7F56D9"/>
</linearGradient>
<linearGradient id="paint36_linear_35_1706" x1="297.988" y1="537.336" x2="300.077" y2="547.453" gradientUnits="userSpaceOnUse">
<stop stop-color="#42307D"/>
<stop offset="1" stop-color="#7F56D9"/>
</linearGradient>
<linearGradient id="paint37_linear_35_1706" x1="254.685" y1="517.599" x2="255.592" y2="525.272" gradientUnits="userSpaceOnUse">
<stop stop-color="#42307D"/>
<stop offset="1" stop-color="#7F56D9"/>
</linearGradient>
<linearGradient id="paint38_linear_35_1706" x1="310.143" y1="556.248" x2="308.833" y2="565.39" gradientUnits="userSpaceOnUse">
<stop stop-color="#42307D"/>
<stop offset="1" stop-color="#7F56D9"/>
</linearGradient>
<linearGradient id="paint39_linear_35_1706" x1="282.643" y1="541.476" x2="285.77" y2="551.498" gradientUnits="userSpaceOnUse">
<stop stop-color="#42307D"/>
<stop offset="1" stop-color="#7F56D9"/>
</linearGradient>
<linearGradient id="paint40_linear_35_1706" x1="294.019" y1="551.397" x2="292.595" y2="561.326" gradientUnits="userSpaceOnUse">
<stop stop-color="#42307D"/>
<stop offset="1" stop-color="#7F56D9"/>
</linearGradient>
<linearGradient id="paint41_linear_35_1706" x1="258.09" y1="531.075" x2="264.371" y2="566.607" gradientUnits="userSpaceOnUse">
<stop stop-color="#42307D"/>
<stop offset="1" stop-color="#7F56D9"/>
</linearGradient>
<linearGradient id="paint42_linear_35_1706" x1="278.49" y1="548.483" x2="277.359" y2="555.633" gradientUnits="userSpaceOnUse">
<stop stop-color="#42307D"/>
<stop offset="1" stop-color="#7F56D9"/>
</linearGradient>
<linearGradient id="paint43_linear_35_1706" x1="786.536" y1="617.849" x2="967.47" y2="618.285" gradientUnits="userSpaceOnUse">
<stop stop-color="#42307D"/>
<stop offset="1" stop-color="#7F56D9"/>
</linearGradient>
<linearGradient id="paint44_linear_35_1706" x1="887.118" y1="640.386" x2="920.993" y2="651.71" gradientUnits="userSpaceOnUse">
<stop stop-color="#42307D"/>
<stop offset="1" stop-color="#7F56D9"/>
</linearGradient>
<linearGradient id="paint45_linear_35_1706" x1="956.221" y1="578.774" x2="1051.97" y2="587.754" gradientUnits="userSpaceOnUse">
<stop stop-color="#42307D"/>
<stop offset="1" stop-color="#7F56D9"/>
</linearGradient>
<linearGradient id="paint46_linear_35_1706" x1="323.348" y1="577.085" x2="284.71" y2="698.66" gradientUnits="userSpaceOnUse">
<stop stop-color="#42307D"/>
<stop offset="1" stop-color="#7F56D9"/>
</linearGradient>
<linearGradient id="paint47_linear_35_1706" x1="806.228" y1="320.58" x2="850.967" y2="305.672" gradientUnits="userSpaceOnUse">
<stop stop-color="#42307D"/>
<stop offset="1" stop-color="#7F56D9"/>
</linearGradient>
<linearGradient id="paint48_linear_35_1706" x1="715.932" y1="464.377" x2="792.631" y2="488.532" gradientUnits="userSpaceOnUse">
<stop stop-color="#42307D"/>
<stop offset="1" stop-color="#7F56D9"/>
</linearGradient>
<linearGradient id="paint49_linear_35_1706" x1="371.744" y1="373.719" x2="475.07" y2="306.852" gradientUnits="userSpaceOnUse">
<stop stop-color="#42307D"/>
<stop offset="1" stop-color="#7F56D9"/>
</linearGradient>
<linearGradient id="paint50_linear_35_1706" x1="826.648" y1="474.086" x2="870.617" y2="568.225" gradientUnits="userSpaceOnUse">
<stop stop-color="#42307D"/>
<stop offset="1" stop-color="#7F56D9"/>
</linearGradient>
<linearGradient id="paint51_linear_35_1706" x1="850.536" y1="405.086" x2="892.831" y2="453.703" gradientUnits="userSpaceOnUse">
<stop stop-color="#42307D"/>
<stop offset="1" stop-color="#7F56D9"/>
</linearGradient>
<linearGradient id="paint52_linear_35_1706" x1="156.941" y1="583.478" x2="221.371" y2="582.406" gradientUnits="userSpaceOnUse">
<stop stop-color="#42307D"/>
<stop offset="1" stop-color="#7F56D9"/>
</linearGradient>
<linearGradient id="paint53_linear_35_1706" x1="242.537" y1="259.654" x2="306.967" y2="258.581" gradientUnits="userSpaceOnUse">
<stop stop-color="#42307D"/>
<stop offset="1" stop-color="#7F56D9"/>
</linearGradient>
<linearGradient id="paint54_linear_35_1706" x1="68.5348" y1="589.085" x2="61.0145" y2="693.593" gradientUnits="userSpaceOnUse">
<stop stop-color="#42307D"/>
<stop offset="1" stop-color="#7F56D9"/>
</linearGradient>
<linearGradient id="paint55_linear_35_1706" x1="953.543" y1="308.669" x2="955.761" y2="436.779" gradientUnits="userSpaceOnUse">
<stop stop-color="#42307D"/>
<stop offset="1" stop-color="#7F56D9"/>
</linearGradient>
<linearGradient id="paint56_linear_35_1706" x1="189.536" y1="405.086" x2="213.655" y2="432.616" gradientUnits="userSpaceOnUse">
<stop stop-color="#42307D"/>
<stop offset="1" stop-color="#7F56D9"/>
</linearGradient>
<linearGradient id="paint57_linear_35_1706" x1="792.536" y1="436.086" x2="816.655" y2="463.616" gradientUnits="userSpaceOnUse">
<stop stop-color="#42307D"/>
<stop offset="1" stop-color="#7F56D9"/>
</linearGradient>
<linearGradient id="paint58_linear_35_1706" x1="894.536" y1="565.086" x2="918.655" y2="592.616" gradientUnits="userSpaceOnUse">
<stop stop-color="#42307D"/>
<stop offset="1" stop-color="#7F56D9"/>
</linearGradient>
<linearGradient id="paint59_linear_35_1706" x1="89.3459" y1="513.021" x2="89.7098" y2="487.054" gradientUnits="userSpaceOnUse">
<stop stop-color="#42307D"/>
<stop offset="1" stop-color="#7F56D9"/>
</linearGradient>
<linearGradient id="paint60_linear_35_1706" x1="163.268" y1="573.25" x2="205.443" y2="434.491" gradientUnits="userSpaceOnUse">
<stop stop-color="#42307D"/>
<stop offset="1" stop-color="#7F56D9"/>
</linearGradient>
<linearGradient id="paint61_linear_35_1706" x1="140.331" y1="543.809" x2="141.972" y2="520.676" gradientUnits="userSpaceOnUse">
<stop stop-color="#42307D"/>
<stop offset="1" stop-color="#7F56D9"/>
</linearGradient>
<linearGradient id="paint62_linear_35_1706" x1="189.926" y1="542.472" x2="188.443" y2="524.66" gradientUnits="userSpaceOnUse">
<stop stop-color="#42307D"/>
<stop offset="1" stop-color="#7F56D9"/>
</linearGradient>
<linearGradient id="paint63_linear_35_1706" x1="205.158" y1="517.401" x2="209.453" y2="507.005" gradientUnits="userSpaceOnUse">
<stop stop-color="#42307D"/>
<stop offset="1" stop-color="#7F56D9"/>
</linearGradient>
<linearGradient id="paint64_linear_35_1706" x1="157.332" y1="459.547" x2="165.117" y2="432.445" gradientUnits="userSpaceOnUse">
<stop stop-color="#42307D"/>
<stop offset="1" stop-color="#7F56D9"/>
</linearGradient>
<linearGradient id="paint65_linear_35_1706" x1="469.535" y1="9.14393" x2="572.639" y2="84.7436" gradientUnits="userSpaceOnUse">
<stop stop-color="#42307D"/>
<stop offset="1" stop-color="#7F56D9"/>
</linearGradient>
</defs>
</svg>
